<svg width="18" height="14" viewBox="0 0 18 14" fill="none" xmlns="http://www.w3.org/2000/svg">
<g clip-path="url(#clip0_1_600)">
<g clip-path="url(#clip1_1_600)">
<path fill-rule="evenodd" clip-rule="evenodd" d="M0 0H25.6503V1.03847H0V0ZM0 2.07694H25.6503V3.11542H0V2.07694ZM0 4.15389H25.6503V5.19236H0V4.15389ZM0 6.23083H25.6503V7.2693H0V6.23083ZM0 8.30777H25.6503V9.34625H0V8.30777ZM0 10.3847H25.6503V11.4232H0V10.3847ZM0 12.4617H25.6503V13.5001H0V12.4617Z" fill="#BD3D44"/>
<path fill-rule="evenodd" clip-rule="evenodd" d="M0 1.03845H25.6503V2.07692H0V1.03845ZM0 3.1154H25.6503V4.15387H0V3.1154ZM0 5.19234H25.6503V6.23081H0V5.19234ZM0 7.26928H25.6503V8.30775H0V7.26928ZM0 9.34622H25.6503V10.3847H0V9.34622ZM0 11.4232H25.6503V12.4616H0V11.4232Z" fill="white"/>
<path fill-rule="evenodd" clip-rule="evenodd" d="M0 0H10.26V7.26917H0V0Z" fill="#192F5D"/>
<path fill-rule="evenodd" clip-rule="evenodd" d="M0.85505 0.311157L0.94839 0.598454H1.2505L1.00608 0.776037L1.09945 1.06333L0.855023 0.885777L0.610652 1.06333L0.703992 0.776037L0.459595 0.598454H0.761684L0.85505 0.311157ZM2.56504 0.311157L2.65841 0.598454H2.96052L2.7161 0.776037L2.80946 1.06333L2.56504 0.885777L2.32067 1.06333L2.41401 0.776037L2.16961 0.598454H2.4717L2.56504 0.311157ZM4.27511 0.311157L4.36845 0.598454H4.67057L4.42614 0.776037L4.51951 1.06333L4.27511 0.885777L4.03071 1.06333L4.12405 0.776037L3.87966 0.598454H4.18177L4.27511 0.311157ZM5.98508 0.311157L6.07842 0.598454H6.38051L6.13611 0.776037L6.22945 1.06333L5.98508 0.885777L5.74065 1.06333L5.83402 0.776037L5.58959 0.598454H5.89171L5.98508 0.311157ZM7.69512 0.311157L7.78846 0.598454H8.09057L7.84615 0.776037L7.93952 1.06333L7.69509 0.885777L7.45072 1.06333L7.54406 0.776037L7.29967 0.598454H7.60175L7.69512 0.311157ZM9.40516 0.311157L9.4985 0.598454H9.80062L9.5562 0.776037L9.64956 1.06333L9.40516 0.885777L9.16074 1.06333L9.25413 0.776037L9.00971 0.598454H9.31182L9.40516 0.311157ZM1.71009 1.0381L1.80342 1.3254H2.10554L1.86112 1.50295L1.95451 1.79028L1.71009 1.61272L1.46569 1.79028L1.55903 1.50295L1.31463 1.3254H1.61675L1.71009 1.0381ZM3.42005 1.0381L3.51339 1.3254H3.81548L3.57108 1.50295L3.66442 1.79028L3.42005 1.61272L3.17563 1.79028L3.26899 1.50295L3.02457 1.3254H3.32668L3.42005 1.0381ZM5.13009 1.0381L5.22343 1.3254H5.52555L5.28112 1.50295L5.37449 1.79028L5.13007 1.61272L4.8857 1.79028L4.97904 1.50295L4.73464 1.3254H5.03673L5.13009 1.0381ZM6.84014 1.0381L6.93348 1.3254H7.23559L6.99117 1.50295L7.08454 1.79028L6.84014 1.61272L6.59571 1.79028L6.68913 1.50295L6.44471 1.3254H6.74682L6.84014 1.0381ZM8.5501 1.0381L8.64344 1.3254H8.94553L8.70113 1.50295L8.79447 1.79028L8.5501 1.61272L8.30568 1.79028L8.39905 1.50295L8.15462 1.3254H8.45674L8.5501 1.0381ZM0.85505 1.76502L0.94839 2.05231H1.2505L1.00608 2.2299L1.09945 2.51719L0.855023 2.33964L0.610652 2.51719L0.703992 2.2299L0.459595 2.05231H0.761684L0.85505 1.76502ZM2.56504 1.76502L2.65841 2.05231H2.96052L2.7161 2.2299L2.80946 2.51719L2.56504 2.33964L2.32067 2.51719L2.41401 2.2299L2.16961 2.05231H2.4717L2.56504 1.76502ZM4.27511 1.76502L4.36845 2.05231H4.67057L4.42614 2.2299L4.51951 2.51719L4.27511 2.33964L4.03071 2.51719L4.12405 2.2299L3.87966 2.05231H4.18177L4.27511 1.76502ZM5.98508 1.76502L6.07842 2.05231H6.38051L6.13611 2.2299L6.22945 2.51719L5.98508 2.33964L5.74065 2.51719L5.83402 2.2299L5.58959 2.05231H5.89171L5.98508 1.76502ZM7.69512 1.76502L7.78846 2.05231H8.09057L7.84615 2.2299L7.93952 2.51719L7.69509 2.33964L7.45072 2.51719L7.54406 2.2299L7.29967 2.05231H7.60175L7.69512 1.76502ZM9.40516 1.76502L9.4985 2.05231H9.80062L9.5562 2.2299L9.64956 2.51719L9.40516 2.33964L9.16074 2.51719L9.25413 2.2299L9.00971 2.05231H9.31182L9.40516 1.76502ZM1.71009 2.49193L1.80342 2.77926H2.10554L1.86112 2.95681L1.95451 3.24414L1.71009 3.06658L1.46569 3.24414L1.55903 2.95681L1.31463 2.77926H1.61675L1.71009 2.49193ZM3.42005 2.49193L3.51339 2.77926H3.81548L3.57108 2.95681L3.66442 3.24414L3.42005 3.06658L3.17563 3.24414L3.26899 2.95681L3.02457 2.77926H3.32668L3.42005 2.49193ZM5.13009 2.49193L5.22343 2.77926H5.52555L5.28112 2.95681L5.37449 3.24414L5.13007 3.06658L4.8857 3.24414L4.97904 2.95681L4.73464 2.77926H5.03673L5.13009 2.49193ZM6.84014 2.49193L6.93348 2.77926H7.23559L6.99117 2.95681L7.08454 3.24414L6.84014 3.06658L6.59571 3.24414L6.68911 2.95681L6.44468 2.77926H6.7468L6.84014 2.49193ZM8.5501 2.49193L8.64344 2.77926H8.94553L8.70113 2.95681L8.79447 3.24414L8.5501 3.06658L8.30568 3.24414L8.39905 2.95681L8.15462 2.77926H8.45674L8.5501 2.49193ZM0.85505 3.21888L0.94839 3.50617H1.2505L1.00608 3.68376L1.09945 3.97105L0.855023 3.7935L0.610652 3.97105L0.703992 3.68376L0.459595 3.50617H0.761684L0.85505 3.21888ZM2.56504 3.21888L2.65841 3.50617H2.96052L2.7161 3.68376L2.80946 3.97105L2.56504 3.7935L2.32067 3.97105L2.41401 3.68376L2.16961 3.50617H2.4717L2.56504 3.21888ZM4.27511 3.21888L4.36845 3.50617H4.67057L4.42614 3.68376L4.51951 3.97105L4.27511 3.7935L4.03071 3.97105L4.12405 3.68376L3.87966 3.50617H4.18177L4.27511 3.21888ZM5.98508 3.21888L6.07842 3.50617H6.38051L6.13611 3.68376L6.22945 3.97105L5.98508 3.7935L5.74065 3.97105L5.83402 3.68376L5.58959 3.50617H5.89171L5.98508 3.21888ZM7.69512 3.21888L7.78846 3.50617H8.09057L7.84615 3.68376L7.93952 3.97105L7.69509 3.7935L7.45072 3.97105L7.54406 3.68376L7.29967 3.50617H7.60175L7.69512 3.21888ZM9.40516 3.21888L9.4985 3.50617H9.80062L9.5562 3.68376L9.64956 3.97105L9.40516 3.7935L9.16074 3.97105L9.25413 3.68376L9.00971 3.50617H9.31182L9.40516 3.21888ZM1.71009 3.94579L1.80342 4.23312H2.10554L1.86112 4.41067L1.95451 4.698L1.71009 4.52044L1.46569 4.698L1.55903 4.41067L1.31463 4.23312H1.61675L1.71009 3.94579ZM3.42005 3.94579L3.51339 4.23312H3.81548L3.57108 4.41067L3.66442 4.698L3.42005 4.52044L3.17563 4.698L3.26899 4.41067L3.02457 4.23312H3.32668L3.42005 3.94579ZM5.13009 3.94579L5.22343 4.23312H5.52555L5.28112 4.41067L5.37449 4.698L5.13007 4.52044L4.8857 4.698L4.97904 4.41067L4.73464 4.23312H5.03673L5.13009 3.94579ZM6.84014 3.94579L6.93348 4.23312H7.23559L6.99117 4.41067L7.08454 4.698L6.84014 4.52044L6.59571 4.698L6.68911 4.41067L6.44468 4.23312H6.7468L6.84014 3.94579ZM8.5501 3.94579L8.64344 4.23312H8.94553L8.70113 4.41067L8.79447 4.698L8.5501 4.52044L8.30568 4.698L8.39905 4.41067L8.15462 4.23312H8.45674L8.5501 3.94579Z" fill="white"/>
<path fill-rule="evenodd" clip-rule="evenodd" d="M0.85505 4.67273L0.94839 4.96003H1.2505L1.00608 5.13761L1.09945 5.42491L0.855023 5.24735L0.610652 5.42491L0.703992 5.13761L0.459595 4.96003H0.761684L0.85505 4.67273ZM2.56504 4.67273L2.65841 4.96003H2.96052L2.7161 5.13761L2.80946 5.42491L2.56504 5.24735L2.32067 5.42491L2.41401 5.13761L2.16961 4.96003H2.4717L2.56504 4.67273ZM4.27511 4.67273L4.36845 4.96003H4.67057L4.42614 5.13761L4.51951 5.42491L4.27511 5.24735L4.03071 5.42491L4.12405 5.13761L3.87966 4.96003H4.18177L4.27511 4.67273ZM5.98508 4.67273L6.07842 4.96003H6.38051L6.13611 5.13761L6.22945 5.42491L5.98508 5.24735L5.74065 5.42491L5.83402 5.13761L5.58959 4.96003H5.89171L5.98508 4.67273ZM7.69512 4.67273L7.78846 4.96003H8.09057L7.84615 5.13761L7.93952 5.42491L7.69509 5.24735L7.45072 5.42491L7.54406 5.13761L7.29967 4.96003H7.60175L7.69512 4.67273ZM9.40516 4.67273L9.4985 4.96003H9.80062L9.5562 5.13761L9.64956 5.42491L9.40516 5.24735L9.16074 5.42491L9.25413 5.13761L9.00971 4.96003H9.31182L9.40516 4.67273ZM1.71009 5.39965L1.80342 5.68697H2.10554L1.86112 5.86453L1.95451 6.15185L1.71009 5.97429L1.46569 6.15185L1.55903 5.86453L1.31463 5.68697H1.61675L1.71009 5.39965ZM3.42005 5.39965L3.51339 5.68697H3.81548L3.57108 5.86453L3.66442 6.15185L3.42005 5.97429L3.17563 6.15185L3.26899 5.86453L3.02457 5.68697H3.32668L3.42005 5.39965ZM5.13009 5.39965L5.22343 5.68697H5.52555L5.28112 5.86453L5.37449 6.15185L5.13007 5.97429L4.8857 6.15185L4.97904 5.86453L4.73464 5.68697H5.03673L5.13009 5.39965ZM6.84014 5.39965L6.93348 5.68697H7.23559L6.99117 5.86453L7.08454 6.15185L6.84014 5.97429L6.59571 6.15185L6.68911 5.86453L6.44468 5.68697H6.7468L6.84014 5.39965ZM8.5501 5.39965L8.64344 5.68697H8.94553L8.70113 5.86453L8.79447 6.15185L8.5501 5.97429L8.30568 6.15185L8.39905 5.86453L8.15462 5.68697H8.45674L8.5501 5.39965Z" fill="white"/>
<path fill-rule="evenodd" clip-rule="evenodd" d="M0.85505 6.12659L0.94839 6.41388H1.2505L1.00608 6.59147L1.09945 6.87876L0.855023 6.70121L0.610652 6.87876L0.703992 6.59147L0.459595 6.41388H0.761684L0.85505 6.12659ZM2.56504 6.12659L2.65841 6.41388H2.96052L2.7161 6.59147L2.80946 6.87876L2.56504 6.70121L2.32067 6.87876L2.41401 6.59147L2.16961 6.41388H2.4717L2.56504 6.12659ZM4.27511 6.12659L4.36845 6.41388H4.67057L4.42614 6.59147L4.51951 6.87876L4.27511 6.70121L4.03071 6.87876L4.12405 6.59147L3.87966 6.41388H4.18177L4.27511 6.12659ZM5.98508 6.12659L6.07842 6.41388H6.38051L6.13611 6.59147L6.22945 6.87876L5.98508 6.70121L5.74065 6.87876L5.83402 6.59147L5.58959 6.41388H5.89171L5.98508 6.12659ZM7.69512 6.12659L7.78846 6.41388H8.09057L7.84615 6.59147L7.93952 6.87876L7.69509 6.70121L7.45072 6.87876L7.54406 6.59147L7.29967 6.41388H7.60175L7.69512 6.12659ZM9.40516 6.12659L9.4985 6.41388H9.80062L9.5562 6.59147L9.64956 6.87876L9.40516 6.70121L9.16074 6.87876L9.25413 6.59147L9.00971 6.41388H9.31182L9.40516 6.12659Z" fill="white"/>
</g>
</g>
<defs>
<clipPath id="clip0_1_600">
<rect width="18" height="13.5" fill="white"/>
</clipPath>
<clipPath id="clip1_1_600">
<rect width="18" height="13.5" fill="white"/>
</clipPath>
</defs>
</svg>
