<svg width="32" height="32" viewBox="0 0 32 32" fill="none" xmlns="http://www.w3.org/2000/svg">
<g clip-path="url(#clip0_1_643)">
<g clip-path="url(#clip1_1_643)">
<path d="M16.3515 6.92308C17.6652 6.92308 19.312 6.00763 20.2927 4.78703C21.1809 3.68086 21.8285 2.13605 21.8285 0.591227C21.8285 0.381437 21.81 0.171647 21.773 0C20.3112 0.0572155 18.5534 1.01081 17.4987 2.28862C16.6661 3.26128 15.9074 4.78703 15.9074 6.35092C15.9074 6.57978 15.9444 6.80865 15.9629 6.88493C16.0555 6.90401 16.2035 6.92308 16.3515 6.92308ZM11.7257 30C13.5205 30 14.3161 28.7603 16.555 28.7603C18.8309 28.7603 19.3305 29.9619 21.3289 29.9619C23.2902 29.9619 24.604 28.0928 25.8437 26.2619C27.2314 24.164 27.805 22.1043 27.842 22.0089C27.7125 21.9708 23.9564 20.3878 23.9564 15.9441C23.9564 12.0915 26.9169 10.356 27.0834 10.2225C25.1221 7.32359 22.143 7.2473 21.3289 7.2473C19.127 7.2473 17.3322 8.62047 16.2035 8.62047C14.9823 8.62047 13.3725 7.32359 11.4666 7.32359C7.83999 7.32359 4.15784 10.4132 4.15784 16.2492C4.15784 19.8729 5.52708 23.7063 7.21088 26.1856C8.65414 28.2835 9.91236 30 11.7257 30Z" fill="black"/>
</g>
</g>
<defs>
<clipPath id="clip0_1_643">
<rect width="32" height="32" fill="white"/>
</clipPath>
<clipPath id="clip1_1_643">
<rect width="32" height="32" fill="white"/>
</clipPath>
</defs>
</svg>
