<svg width="175" height="176" viewBox="0 0 175 176" fill="none" xmlns="http://www.w3.org/2000/svg">
<g clip-path="url(#clip0_1_695)">
<g clip-path="url(#clip1_1_695)">
<path d="M10.5978 128.724C1.22044 124.108 -2.66076 112.721 1.92885 103.29L47.0082 10.6586C51.5978 1.22788 62.9202 -2.67615 72.2973 1.93987L164.402 47.2769C173.779 51.8929 177.66 63.2799 173.072 72.7106L127.992 165.342C123.402 174.773 112.08 178.676 102.703 174.061L10.5978 128.724Z" fill="#DBEAE5"/>
<path d="M61.5489 76.0065C61.0316 75.6726 60.4364 75.4707 59.7631 75.4008C59.0899 75.3309 58.4835 75.3888 57.944 75.5746C57.6661 75.6703 57.3925 75.7919 57.1233 75.9395C56.8541 76.087 56.629 76.2697 56.4479 76.4874C56.2669 76.7052 56.1367 76.9512 56.0574 77.2254C55.9781 77.4996 55.9976 77.8083 56.1158 78.1516C56.2171 78.4459 56.3628 78.67 56.553 78.824C56.7432 78.9779 56.9821 79.0877 57.2698 79.1532C57.5575 79.2187 57.886 79.2565 58.2552 79.2665C58.6244 79.2765 59.0358 79.2766 59.4896 79.2666C60.1457 79.2601 60.8333 79.2657 61.5525 79.2832C62.2717 79.3007 62.9605 79.4156 63.6187 79.6278C64.277 79.84 64.8777 80.1772 65.4208 80.6394C65.964 81.1015 66.3847 81.7658 66.6831 82.6323C67.0265 83.6295 67.1395 84.5553 67.0221 85.4094C66.9048 86.2636 66.6171 87.0347 66.1591 87.7227C65.7011 88.4107 65.111 89.0071 64.3888 89.5118C63.6665 90.0165 62.8803 90.4152 62.0302 90.7079C60.7877 91.1357 59.5115 91.3328 58.2016 91.2993C56.8917 91.2657 55.7146 90.9807 54.6704 90.4442L56.4544 86.7029C57.0596 87.0797 57.7701 87.3242 58.5859 87.4365C59.4017 87.5487 60.153 87.4866 60.8396 87.2502C61.1502 87.1433 61.4414 87.0064 61.7132 86.8397C61.9849 86.673 62.2058 86.4781 62.3759 86.2549C62.5459 86.0318 62.6541 85.7751 62.7005 85.4848C62.7468 85.1946 62.7109 84.8778 62.5927 84.5345C62.4801 84.2075 62.3026 83.9577 62.0603 83.7851C61.818 83.6126 61.5133 83.4843 61.1461 83.4005C60.7789 83.3166 60.3438 83.2744 59.8408 83.2739C59.3377 83.2734 58.7691 83.2817 58.135 83.2989C57.5172 83.3105 56.9005 83.2851 56.2847 83.2229C55.669 83.1606 55.0865 83.0091 54.5373 82.7685C53.9882 82.5278 53.4926 82.1773 53.0506 81.7169C52.6086 81.2565 52.2525 80.6339 51.9823 79.8492C51.6502 78.8846 51.5621 77.9915 51.718 77.1697C51.874 76.348 52.1947 75.6067 52.6803 74.9457C53.1659 74.2848 53.7741 73.7142 54.5048 73.234C55.2355 72.7538 56.0096 72.373 56.827 72.0916C57.8079 71.7538 58.8712 71.5888 60.0168 71.5967C61.1624 71.6045 62.2404 71.8277 63.2508 72.2661L61.5489 76.0065Z" fill="#384C75"/>
<path d="M74.2741 70.5826L79.0195 84.3643L74.8262 85.8082L70.0807 72.0265L65.1762 73.7152L63.9434 70.1349L77.9458 65.3135L79.1786 68.8938L74.2741 70.5826Z" fill="#384C75"/>
<path d="M96.7493 78.2594L94.2269 75.3152L87.5077 77.6288L87.4062 81.4765L82.845 83.047L84.15 63.1772L88.2208 61.7755L101.409 76.6551L96.7493 78.2594ZM87.7077 67.1365L87.5525 73.8554L91.9175 72.3524L87.7077 67.1365Z" fill="#384C75"/>
<path d="M107.9 66.191L110.433 73.5477L106.24 74.9916L103.707 67.6349L93.7386 59.8757L98.8147 58.1278L104.73 63.2777L106.221 55.5778L111.125 53.889L107.9 66.191Z" fill="#384C75"/>
<path d="M51.4169 106.925C50.8996 106.591 50.3043 106.389 49.6311 106.32C48.9578 106.25 48.3515 106.308 47.812 106.493C47.534 106.589 47.2605 106.711 46.9913 106.858C46.722 107.006 46.4969 107.188 46.3159 107.406C46.1349 107.624 46.0047 107.87 45.9254 108.144C45.8461 108.418 45.8655 108.727 45.9837 109.07C46.0851 109.365 46.2308 109.589 46.421 109.743C46.6111 109.897 46.8501 110.006 47.1378 110.072C47.4255 110.137 47.7539 110.175 48.1231 110.185C48.4923 110.195 48.9038 110.195 49.3575 110.185C50.0136 110.179 50.7013 110.184 51.4205 110.202C52.1397 110.219 52.8284 110.334 53.4867 110.547C54.1449 110.759 54.7456 111.096 55.2888 111.558C55.8319 112.02 56.2527 112.685 56.551 113.551C56.8944 114.548 57.0074 115.474 56.8901 116.328C56.7727 117.182 56.4851 117.953 56.0271 118.641C55.5691 119.329 54.979 119.926 54.2567 120.431C53.5344 120.935 52.7483 121.334 51.8981 121.627C50.6557 122.054 49.3795 122.252 48.0696 122.218C46.7597 122.185 45.5826 121.899 44.5384 121.363L46.3223 117.622C46.9275 117.998 47.638 118.243 48.4539 118.355C49.2697 118.468 50.0209 118.405 50.7076 118.169C51.0182 118.062 51.3094 117.925 51.5811 117.758C51.8529 117.592 52.0738 117.397 52.2438 117.174C52.4139 116.951 52.5221 116.694 52.5684 116.404C52.6147 116.113 52.5788 115.797 52.4606 115.453C52.348 115.126 52.1706 114.877 51.9283 114.704C51.686 114.531 51.3813 114.403 51.0141 114.319C50.6469 114.235 50.2118 114.193 49.7087 114.193C49.2057 114.192 48.6371 114.201 48.003 114.218C47.3852 114.229 46.7684 114.204 46.1527 114.142C45.5369 114.079 44.9544 113.928 44.4053 113.687C43.8561 113.447 43.3605 113.096 42.9185 112.636C42.4766 112.175 42.1205 111.553 41.8503 110.768C41.5182 109.803 41.4301 108.91 41.586 108.089C41.7419 107.267 42.0627 106.525 42.5483 105.865C43.0339 105.204 43.642 104.633 44.3728 104.153C45.1035 103.673 45.8775 103.292 46.6949 103.01C47.6758 102.673 48.7391 102.508 49.8847 102.515C51.0303 102.523 52.1084 102.746 53.1188 103.185L51.4169 106.925Z" fill="#384C75"/>
<path d="M61.7759 117.732L55.7977 100.37L67.4704 96.3505L68.6948 99.9063L61.0682 102.532L62.1913 105.794L69.4009 103.311L70.5577 106.671L63.3481 109.153L64.5893 112.758L72.6572 109.98L73.89 113.561L61.7759 117.732Z" fill="#384C75"/>
<path d="M91.7243 104.732C91.2599 105.879 90.5523 106.904 89.6016 107.808C88.6509 108.711 87.4398 109.416 85.9685 109.923C84.6279 110.384 83.3135 110.59 82.0253 110.54C80.7371 110.49 79.5368 110.204 78.4244 109.681C77.312 109.159 76.3245 108.416 75.462 107.451C74.5995 106.486 73.9346 105.325 73.4674 103.968C72.9889 102.579 72.7966 101.237 72.8905 99.9428C72.9843 98.6487 73.3198 97.4589 73.8969 96.3732C74.474 95.2876 75.2616 94.3353 76.2596 93.5162C77.2576 92.6971 78.4187 92.0595 79.743 91.6036C80.9691 91.1814 82.2494 90.9828 83.5838 91.0079C84.9182 91.0331 86.0968 91.3358 87.1196 91.9163L85.2545 95.7404C84.6763 95.336 84.0235 95.1128 83.2958 95.0708C82.5681 95.0287 81.8692 95.1231 81.1989 95.3539C80.4632 95.6072 79.8353 95.9743 79.3151 96.4551C78.7949 96.936 78.3958 97.4894 78.1176 98.1155C77.8394 98.7416 77.6889 99.4198 77.666 100.15C77.6432 100.88 77.764 101.629 78.0286 102.398C78.2988 103.183 78.6691 103.86 79.1395 104.429C79.6099 104.999 80.1419 105.442 80.7356 105.759C81.3292 106.075 81.9736 106.26 82.6685 106.314C83.3635 106.367 84.0706 106.27 84.7899 106.022C85.6237 105.735 86.2949 105.321 86.8036 104.78C87.3122 104.239 87.6645 103.642 87.8604 102.99L91.7243 104.732Z" fill="#384C75"/>
<path d="M107.414 94.6935C107.774 95.7397 107.926 96.7526 107.87 97.7319C107.815 98.7112 107.565 99.62 107.122 100.458C106.679 101.296 106.055 102.046 105.25 102.708C104.444 103.369 103.478 103.894 102.35 104.282C101.205 104.676 100.116 104.859 99.0824 104.831C98.0487 104.803 97.1075 104.592 96.2588 104.199C95.4101 103.805 94.6663 103.238 94.0275 102.498C93.3886 101.758 92.8891 100.865 92.5288 99.8188L88.8051 89.0044L92.9739 87.5689L96.5794 98.0401C96.7427 98.5142 96.9588 98.9427 97.2278 99.3255C97.4967 99.7083 97.8156 100.024 98.1844 100.272C98.5532 100.519 98.9798 100.67 99.4643 100.722C99.9487 100.775 100.485 100.7 101.074 100.497C101.662 100.295 102.131 100.024 102.481 99.6838C102.83 99.3441 103.078 98.9616 103.224 98.5364C103.37 98.1112 103.427 97.6663 103.395 97.2019C103.363 96.7374 103.266 96.2681 103.102 95.794L99.4969 85.3229L103.69 83.879L107.414 94.6935Z" fill="#384C75"/>
<path d="M122.96 96.6644L116.835 91.0655L115.413 91.5552L117.785 98.4461L113.666 99.8646L107.687 82.5026L114.308 80.2228C115.142 79.9357 115.985 79.7415 116.837 79.6401C117.689 79.5388 118.5 79.5841 119.27 79.7761C120.04 79.9681 120.729 80.3345 121.336 80.8753C121.943 81.4161 122.418 82.1851 122.761 83.1824C123.166 84.3595 123.188 85.4583 122.826 86.4789C122.465 87.4995 121.779 88.3757 120.769 89.1074L127.864 94.9757L122.96 96.6644ZM118.642 84.683C118.501 84.2742 118.301 83.9727 118.043 83.7785C117.784 83.5842 117.495 83.464 117.178 83.4179C116.86 83.3718 116.525 83.3819 116.173 83.4483C115.821 83.5147 115.49 83.6013 115.179 83.7083L112.948 84.4767L114.341 88.5229L116.327 87.8389C116.671 87.7207 117.012 87.5711 117.352 87.39C117.692 87.209 117.984 86.9942 118.228 86.7457C118.471 86.4973 118.639 86.2017 118.732 85.8591C118.824 85.5164 118.794 85.1244 118.642 84.683Z" fill="#384C75"/>
<path d="M130.537 94.0553L124.559 76.6933L136.232 72.6741L137.456 76.2298L129.83 78.8559L130.953 82.1174L138.162 79.6349L139.319 82.9945L132.109 85.477L133.351 89.0818L141.419 86.3038L142.651 89.8841L130.537 94.0553Z" fill="#384C75"/>
</g>
</g>
<defs>
<clipPath id="clip0_1_695">
<rect width="175" height="176" fill="white"/>
</clipPath>
<clipPath id="clip1_1_695">
<rect width="175" height="176" fill="white"/>
</clipPath>
</defs>
</svg>
